<svg width="264" height="123" viewBox="0 0 264 123" fill="none" xmlns="http://www.w3.org/2000/svg">
<path d="M20.4531 34.8828H3.12598V119.995H20.4531V34.8828Z" fill="#EFEFEF"/>
<path d="M20.3953 3.24505C18.172 1.0965 15.3854 0 12.1097 0C8.83402 0 5.81029 1.0965 3.49803 3.24505C1.17095 5.3936 0 8.09039 0 11.2614C0 14.4323 1.17095 17.3217 3.49803 19.5147C5.82512 21.7226 8.71544 22.8339 12.1097 22.8339C15.504 22.8339 18.172 21.7226 20.3953 19.5147C22.6186 17.3217 23.7303 14.536 23.7303 11.2614C23.7303 7.98667 22.6038 5.3936 20.3953 3.24505Z" fill="#EFEFEF"/>
<path d="M93.7664 120.007H116.118L73.8602 70.1612L114.132 34.8806H91.4393L53.6279 68.472V0H36.3008V120.007H53.6279V88.0312L61.7653 80.815L93.7664 120.007Z" fill="#EFEFEF"/>
<path d="M199.832 120.011V34.8844H183.157V47.4645L182.505 46.7088C174.62 37.4922 164.541 32.8247 152.564 32.8247C139.921 32.8247 129.338 37.0181 121.127 45.3011C112.915 53.5841 108.75 64.2083 108.75 76.8922C108.75 89.576 112.915 100.541 121.127 109.135C129.338 117.729 139.906 122.086 152.564 122.086C164.555 122.086 174.62 117.463 182.505 108.35L183.157 107.594V120.011H199.832ZM175.82 98.1702C170.292 103.845 163.296 106.72 155.025 106.72C146.754 106.72 139.521 103.89 134.229 98.3184C128.923 92.747 126.24 85.7531 126.24 77.5145C126.24 69.2759 128.923 62.282 134.229 56.7106C139.536 51.0355 146.532 48.1609 155.025 48.1609C163.518 48.1609 170.292 51.0355 175.82 56.7106C181.23 62.282 183.973 69.2315 183.973 77.3663C183.973 85.5012 181.23 92.5988 175.82 98.1702Z" fill="#EFEFEF"/>
<path d="M233.17 34.8828H215.843V119.995H233.17V34.8828Z" fill="#EFEFEF"/>
<path d="M233.124 3.24505C230.9 1.0965 228.114 0 224.838 0C221.563 0 218.539 1.0965 216.227 3.24505C213.914 5.3936 212.729 8.09039 212.729 11.2614C212.729 14.4323 213.899 17.3217 216.227 19.5147C218.554 21.7226 221.444 22.8339 224.838 22.8339C228.233 22.8339 230.9 21.7226 233.124 19.5147C235.347 17.3217 236.474 14.536 236.474 11.2614C236.474 7.98667 235.347 5.3936 233.139 3.24505H233.124Z" fill="#EFEFEF"/>
<path d="M243.453 112.157H246.847V120.38H248.463V112.157H251.813V110.705H243.453V112.157Z" fill="#EFEFEF"/>
<path d="M260.902 110.705L258.293 118.054H258.219L255.625 110.705H253.18V120.38H254.795V112.853H254.869L257.552 120.38H258.946L261.628 112.853H261.702V120.38H263.318V110.705H260.902Z" fill="#EFEFEF"/>
</svg>
