<?xml version="1.0" encoding="UTF-8" standalone="no"?>
<svg
   width="187"
   height="134"
   viewBox="0 0 187 134"
   fill="none"
   version="1.1"
   id="svg6"
   sodipodi:docname="Group-2v2.svg"
   inkscape:version="1.4 (e7c3feb1, 2024-10-09)"
   xmlns:inkscape="http://www.inkscape.org/namespaces/inkscape"
   xmlns:sodipodi="http://sodipodi.sourceforge.net/DTD/sodipodi-0.dtd"
   xmlns="http://www.w3.org/2000/svg"
   xmlns:svg="http://www.w3.org/2000/svg">
  <defs
     id="defs6" />
  <sodipodi:namedview
     id="namedview6"
     pagecolor="#ffffff"
     bordercolor="#000000"
     borderopacity="0.25"
     inkscape:showpageshadow="2"
     inkscape:pageopacity="0.0"
     inkscape:pagecheckerboard="0"
     inkscape:deskcolor="#d1d1d1"
     inkscape:zoom="2.5025604"
     inkscape:cx="84.513444"
     inkscape:cy="98.49912"
     inkscape:window-width="1472"
     inkscape:window-height="920"
     inkscape:window-x="0"
     inkscape:window-y="36"
     inkscape:window-maximized="0"
     inkscape:current-layer="svg6" />
  <path
     d="M6.26988 126.62C2.82064 126.62 0 123.799 0 120.334V13.1976C0 9.73226 2.80452 6.91162 6.26988 6.91162C6.75342 6.91162 7.22084 6.95997 7.70438 7.0728L32.2036 12.7463V122.139L7.38202 126.507C7.0113 126.571 6.64059 126.603 6.286 126.603L6.26988 126.62Z"
     fill="#EFEFEF"
     id="path3" />
  <path
     d="M137.196 117.982C99.6407 75.8496 85.8277 68.0163 79.0098 66.5656C92.1942 64.3575 105.572 50.2221 137.196 15.1172L151.75 17.7122C154.7 18.2279 156.827 20.7907 156.827 23.7725V109.343C156.827 112.324 154.7 114.887 151.75 115.403L137.196 117.998V117.982Z"
     fill="#EFEFEF"
     id="path4" />
  <path
     d="M51.2559 6.286C51.2559 2.82064 54.0604 0 57.5257 0C57.8964 0 58.2672 0.0322359 58.6379 0.0967076L112.552 9.68688C78.1567 53.6888 69.9527 61.7156 58.0093 63.3435C56.0429 63.6175 52.4164 64.0849 51.2559 64.2461V6.286Z"
     fill="#EFEFEF"
     id="path5" />
  <path
     d="M57.5257 133.095C54.0765 133.095 51.2559 130.274 51.2559 126.809V68.8164C52.4002 68.9131 56.0912 69.2355 57.977 69.7351C65.9877 71.8305 71.1132 76.8593 112.52 123.408L58.6379 132.998C58.2672 133.063 57.8964 133.095 57.5257 133.095Z"
     fill="#EFEFEF"
     id="path6" />
</svg>
